name Walk7.mot
datacolumns 19
datarows 27
range 2.43800000 2.46400000
endheader

                time	   L_ground_force_vx	   L_ground_force_vy	   L_ground_force_vz	   L_ground_force_px	   L_ground_force_py	   L_ground_force_pz	   R_ground_force_vx	   R_ground_force_vy	   R_ground_force_vz	   R_ground_force_px	   R_ground_force_py	   R_ground_force_pz	   L_ground_torque_x	   L_ground_torque_y	   L_ground_torque_z	   R_ground_torque_x	   R_ground_torque_y	   R_ground_torque_z	
          2.43800000	        -19.28041152	        684.12051707	        -44.38152101	          0.21408809	          0.00000000	          0.07550370	          0.00000000	          0.00000000	          0.00000000	          0.00000000	          0.00000000	          0.00000000	          0.00000000	          7.46606875	          0.00000000	          0.00000000	          0.00000000	          0.00000000	
          2.43900000	        -18.85352744	        682.92212876	        -44.35408956	          0.21416248	          0.00000000	          0.07557099	          0.00000000	          0.00000000	          0.00000000	          0.00000000	          0.00000000	          0.00000000	          0.00000000	          7.40192813	          0.00000000	          0.00000000	          0.00000000	          0.00000000	
          2.44000000	        -18.42697389	        681.72998082	        -44.36112361	          0.21425533	          0.00000000	          0.07561946	          0.00000000	          0.00000000	          0.00000000	          0.00000000	          0.00000000	          0.00000000	          0.00000000	          7.34844423	          0.00000000	          0.00000000	          0.00000000	          0.00000000	
          2.44100000	        -18.01327917	        680.49973382	        -44.39823281	          0.21438713	          0.00000000	          0.07562535	          0.00000000	          0.00000000	          0.00000000	          0.00000000	          0.00000000	          0.00000000	          0.00000000	          7.30565531	          0.00000000	          0.00000000	          0.00000000	          0.00000000	
          2.44200000	        -17.62574701	        679.19512676	        -44.43617160	          0.21456707	          0.00000000	          0.07557900	          0.00000000	          0.00000000	          0.00000000	          0.00000000	          0.00000000	          0.00000000	          0.00000000	          7.26436102	          0.00000000	          0.00000000	          0.00000000	          0.00000000	
          2.44300000	        -17.27254603	        677.80247789	        -44.44246806	          0.21477530	          0.00000000	          0.07549541	          0.00000000	          0.00000000	          0.00000000	          0.00000000	          0.00000000	          0.00000000	          0.00000000	          7.21173126	          0.00000000	          0.00000000	          0.00000000	          0.00000000	
          2.44400000	        -16.94526672	        676.32493933	        -44.41690258	          0.21496616	          0.00000000	          0.07539693	          0.00000000	          0.00000000	          0.00000000	          0.00000000	          0.00000000	          0.00000000	          0.00000000	          7.14325607	          0.00000000	          0.00000000	          0.00000000	          0.00000000	
          2.44500000	        -16.62025342	        674.79951183	        -44.39498736	          0.21511314	          0.00000000	          0.07531064	          0.00000000	          0.00000000	          0.00000000	          0.00000000	          0.00000000	          0.00000000	          0.00000000	          7.06686729	          0.00000000	          0.00000000	          0.00000000	          0.00000000	
          2.44600000	        -16.27681921	        673.29467265	        -44.41095156	          0.21522909	          0.00000000	          0.07526424	          0.00000000	          0.00000000	          0.00000000	          0.00000000	          0.00000000	          0.00000000	          0.00000000	          6.99353976	          0.00000000	          0.00000000	          0.00000000	          0.00000000	
          2.44700000	        -15.91068605	        671.85702455	        -44.47436423	          0.21533679	          0.00000000	          0.07525978	          0.00000000	          0.00000000	          0.00000000	          0.00000000	          0.00000000	          0.00000000	          0.00000000	          6.93212851	          0.00000000	          0.00000000	          0.00000000	          0.00000000	
          2.44800000	        -15.52820230	        670.49545748	        -44.57972936	          0.21545037	          0.00000000	          0.07527338	          0.00000000	          0.00000000	          0.00000000	          0.00000000	          0.00000000	          0.00000000	          0.00000000	          6.89117531	          0.00000000	          0.00000000	          0.00000000	          0.00000000	
          2.44900000	        -15.13174325	        669.21604652	        -44.71543992	          0.21558217	          0.00000000	          0.07528949	          0.00000000	          0.00000000	          0.00000000	          0.00000000	          0.00000000	          0.00000000	          0.00000000	          6.87510051	          0.00000000	          0.00000000	          0.00000000	          0.00000000	
          2.45000000	        -14.72205714	        668.02635053	        -44.85947320	          0.21574461	          0.00000000	          0.07531522	          0.00000000	          0.00000000	          0.00000000	          0.00000000	          0.00000000	          0.00000000	          0.00000000	          6.87519356	          0.00000000	          0.00000000	          0.00000000	          0.00000000	
          2.45100000	        -14.31738788	        666.90504513	        -44.97887968	          0.21593863	          0.00000000	          0.07535361	          0.00000000	          0.00000000	          0.00000000	          0.00000000	          0.00000000	          0.00000000	          0.00000000	          6.86862854	          0.00000000	          0.00000000	          0.00000000	          0.00000000	
          2.45200000	        -13.95282072	        665.80098196	        -45.04522138	          0.21614455	          0.00000000	          0.07538265	          0.00000000	          0.00000000	          0.00000000	          0.00000000	          0.00000000	          0.00000000	          0.00000000	          6.83480211	          0.00000000	          0.00000000	          0.00000000	          0.00000000	
          2.45300000	        -13.65486247	        664.68120715	        -45.05029943	          0.21633539	          0.00000000	          0.07537759	          0.00000000	          0.00000000	          0.00000000	          0.00000000	          0.00000000	          0.00000000	          0.00000000	          6.77127930	          0.00000000	          0.00000000	          0.00000000	          0.00000000	
          2.45400000	        -13.41976076	        663.57085075	        -45.00340369	          0.21650354	          0.00000000	          0.07533812	          0.00000000	          0.00000000	          0.00000000	          0.00000000	          0.00000000	          0.00000000	          0.00000000	          6.69071795	          0.00000000	          0.00000000	          0.00000000	          0.00000000	
          2.45500000	        -13.21153824	        662.52443179	        -44.92319942	          0.21666150	          0.00000000	          0.07527890	          0.00000000	          0.00000000	          0.00000000	          0.00000000	          0.00000000	          0.00000000	          0.00000000	          6.61019288	          0.00000000	          0.00000000	          0.00000000	          0.00000000	
          2.45600000	        -12.98149097	        661.56676254	        -44.83612526	          0.21682002	          0.00000000	          0.07521102	          0.00000000	          0.00000000	          0.00000000	          0.00000000	          0.00000000	          0.00000000	          0.00000000	          6.54467137	          0.00000000	          0.00000000	          0.00000000	          0.00000000	
          2.45700000	        -12.70006522	        660.67574108	        -44.76718285	          0.21697843	          0.00000000	          0.07514291	          0.00000000	          0.00000000	          0.00000000	          0.00000000	          0.00000000	          0.00000000	          0.00000000	          6.50110314	          0.00000000	          0.00000000	          0.00000000	          0.00000000	
          2.45800000	        -12.37672623	        659.80417763	        -44.72063850	          0.21712638	          0.00000000	          0.07508378	          0.00000000	          0.00000000	          0.00000000	          0.00000000	          0.00000000	          0.00000000	          0.00000000	          6.47522928	          0.00000000	          0.00000000	          0.00000000	          0.00000000	
          2.45900000	        -12.04248483	        658.92432574	        -44.67672328	          0.21726418	          0.00000000	          0.07504047	          0.00000000	          0.00000000	          0.00000000	          0.00000000	          0.00000000	          0.00000000	          0.00000000	          6.45810613	          0.00000000	          0.00000000	          0.00000000	          0.00000000	
          2.46000000	        -11.71734898	        658.05332321	        -44.61026871	          0.21742522	          0.00000000	          0.07500987	          0.00000000	          0.00000000	          0.00000000	          0.00000000	          0.00000000	          0.00000000	          0.00000000	          6.44326750	          0.00000000	          0.00000000	          0.00000000	          0.00000000	
          2.46100000	        -11.40580604	        657.20380407	        -44.50615580	          0.21764475	          0.00000000	          0.07497511	          0.00000000	          0.00000000	          0.00000000	          0.00000000	          0.00000000	          0.00000000	          0.00000000	          6.42432704	          0.00000000	          0.00000000	          0.00000000	          0.00000000	
          2.46200000	        -11.11217787	        656.34293261	        -44.36277049	          0.21791089	          0.00000000	          0.07492202	          0.00000000	          0.00000000	          0.00000000	          0.00000000	          0.00000000	          0.00000000	          0.00000000	          6.39274030	          0.00000000	          0.00000000	          0.00000000	          0.00000000	
          2.46300000	        -10.84536641	        655.44403305	        -44.18674125	          0.21818165	          0.00000000	          0.07485811	          0.00000000	          0.00000000	          0.00000000	          0.00000000	          0.00000000	          0.00000000	          0.00000000	          6.34251205	          0.00000000	          0.00000000	          0.00000000	          0.00000000	
          2.46400000	        -10.60632445	        654.53270408	        -43.98427814	          0.21843133	          0.00000000	          0.07480566	          0.00000000	          0.00000000	          0.00000000	          0.00000000	          0.00000000	          0.00000000	          0.00000000	          6.27557495	          0.00000000	          0.00000000	          0.00000000	          0.00000000	
